<svg width="7" height="9" viewBox="0 0 7 9" fill="none" xmlns="http://www.w3.org/2000/svg">
<g clip-path="url(#clip0_10_8977)">
<path d="M3.76289 0.446583V0.450628C3.76693 0.470854 3.76693 0.495124 3.76693 0.519394V3.43588C3.76289 3.45206 3.75075 3.4561 3.73862 3.46419C3.65367 3.50465 3.57277 3.54105 3.48783 3.57746C3.37052 3.63004 3.24917 3.68667 3.13186 3.73926L2.70713 3.93342C2.58982 3.98601 2.47252 4.03859 2.35925 4.09118C2.22172 4.1559 2.08015 4.21657 1.94261 4.2813C1.82531 4.33388 1.708 4.39051 1.58665 4.4431C1.48957 4.48759 1.39249 4.52804 1.29945 4.57254C1.29136 4.57658 1.28327 4.58063 1.27518 4.58063C1.27113 4.58063 1.27113 4.58063 1.26709 4.57658L1.37631 4.39456C1.58665 4.04668 1.79295 3.70285 2.00329 3.35498C2.22577 2.98283 2.45229 2.61069 2.67477 2.23854C2.88107 1.89471 3.09141 1.55088 3.29771 1.20705C3.44737 0.95626 3.60109 0.705467 3.75075 0.454674C3.7548 0.446583 3.75884 0.442538 3.75884 0.434448H3.76289C3.75884 0.438493 3.76289 0.442538 3.76289 0.446583Z" fill="#8A92B2"/>
<path d="M6.24664 4.57665L6.25068 4.58069L5.65606 4.93261L3.78724 6.03691C3.77915 6.04096 3.77106 6.045 3.76702 6.04905C3.75488 6.04905 3.75488 6.03691 3.75488 6.03287V5.99646V3.49662C3.75488 3.48448 3.75488 3.4683 3.75893 3.45617C3.76297 3.43999 3.77511 3.44403 3.78724 3.44808C3.83983 3.47235 3.89646 3.49662 3.94905 3.52089C4.1068 3.5937 4.26456 3.66651 4.42232 3.73527C4.55985 3.79595 4.69334 3.86067 4.83087 3.92135C4.9684 3.98202 5.10593 4.04674 5.24346 4.10742C5.36077 4.16001 5.48212 4.21664 5.59943 4.26922C5.71673 4.32181 5.83809 4.37844 5.95539 4.43102C6.04843 4.47147 6.14147 4.51597 6.2345 4.55642C6.2345 4.56856 6.23855 4.5726 6.24664 4.57665Z" fill="#454A75"/>
<path d="M3.76289 8.56098C3.76289 8.56503 3.75884 8.56907 3.75884 8.57312H3.7548C3.7548 8.56503 3.74671 8.56098 3.74266 8.55289C3.49187 8.20097 3.24108 7.84501 2.99028 7.49309C2.73544 7.13308 2.47656 6.76903 2.22172 6.40902C1.97497 6.06114 1.72418 5.70922 1.47743 5.36135C1.41271 5.26831 1.34799 5.17932 1.28327 5.08628C1.27923 5.07819 1.27518 5.07415 1.26709 5.06201C1.27923 5.06201 1.28732 5.0701 1.29136 5.07415C1.64328 5.28044 1.99115 5.48674 2.34307 5.69304C2.74758 5.9317 3.14804 6.17036 3.55255 6.40902L3.75884 6.53037C3.76693 6.53846 3.76693 6.54655 3.76693 6.55464V8.50435C3.76693 8.52458 3.76693 8.5448 3.76289 8.56098Z" fill="#8A92B2"/>
<path d="M1.2627 4.58468V4.58063C1.39214 4.524 1.51753 4.46332 1.64698 4.40669C1.81282 4.32984 1.97867 4.25703 2.14452 4.18017C2.26991 4.12354 2.39936 4.06286 2.52475 4.00623C2.71083 3.92129 2.89285 3.84039 3.07893 3.75544C3.20432 3.69881 3.32972 3.64218 3.45916 3.5815C3.54815 3.54105 3.64119 3.5006 3.73018 3.46015C3.73827 3.4561 3.7504 3.45206 3.75445 3.44397C3.75849 3.44397 3.75849 3.44801 3.75445 3.45206V6.02067C3.75445 6.0328 3.7504 6.04494 3.75849 6.05303C3.7504 6.06517 3.74231 6.05303 3.73827 6.04898C3.70186 6.02876 3.66546 6.00853 3.62905 5.98426C2.84836 5.52313 2.06362 5.05795 1.28292 4.59681C1.27888 4.59277 1.27079 4.58872 1.2627 4.58468Z" fill="#62688F"/>
<path d="M6.23792 5.06201H6.24196C6.24196 5.0701 6.23387 5.07819 6.22983 5.08628C5.48554 6.13395 4.74125 7.18567 3.99696 8.23334C3.9201 8.34255 3.8392 8.45177 3.76235 8.56098C3.7583 8.55694 3.7583 8.55289 3.7583 8.54885V8.52458V6.56273V6.52632C3.92819 6.4252 4.09404 6.32811 4.26393 6.22699C4.91923 5.83866 5.57453 5.45438 6.22578 5.06606C6.22983 5.0701 6.23387 5.06606 6.23792 5.06201Z" fill="#62688F"/>
<path d="M3.75833 3.45211V3.44402V3.41975V0.483044C3.75833 0.470909 3.75429 0.462819 3.76238 0.450684C4.58353 1.81387 5.40467 3.17301 6.22177 4.53619C6.22986 4.54832 6.242 4.5645 6.24604 4.58068C6.18941 4.56046 6.13683 4.53214 6.08424 4.50787C6.01952 4.47956 5.95075 4.4472 5.88603 4.41888C5.84558 4.39866 5.80109 4.38248 5.76064 4.36225C5.69187 4.32989 5.6231 4.30158 5.55434 4.26922C5.51389 4.25304 5.47344 4.23281 5.43299 4.21258L5.16601 4.09123C5.12152 4.07101 5.07702 4.05078 5.02848 4.03056L4.83432 3.94561C4.79387 3.92943 4.75342 3.90921 4.71297 3.88898L4.44599 3.76763C4.4015 3.7474 4.357 3.72718 4.30846 3.70695L4.1143 3.62201C4.0698 3.60178 4.02935 3.58156 3.98486 3.56133C3.908 3.52493 3.83115 3.48852 3.75024 3.45616C3.76238 3.45211 3.75833 3.45211 3.75833 3.45211Z" fill="#62688F"/>
</g>
<defs>
<clipPath id="clip0_10_8977">
<rect width="6.84289" height="8.21146" fill="white" transform="translate(0.10083 0.402222)"/>
</clipPath>
</defs>
</svg>
